<svg width="39" height="17" viewBox="0 0 39 17" fill="none" xmlns="http://www.w3.org/2000/svg">
<rect width="15.7609" height="16.6032" rx="2.62682" fill="#BD3832"/>
<path d="M11.1717 8.15426C11.1923 8.24375 11.1751 8.33667 11.1269 8.41584C11.0788 8.49155 10.9996 8.54662 10.9101 8.56727C10.8206 8.58792 10.7277 8.57072 10.652 8.52253C10.5728 8.4709 10.5212 8.39518 10.5005 8.3057C10.4765 8.19556 10.4627 8.08198 10.4627 7.9684C10.4661 7.71715 10.5143 7.4659 10.6038 7.23186C10.6898 6.99438 10.8241 6.77754 10.9962 6.59513C11.0581 6.52973 11.1442 6.49187 11.2371 6.48843C11.3266 6.48499 11.4161 6.51941 11.4815 6.58136C11.5503 6.64331 11.5881 6.72936 11.5916 6.82229C11.595 6.91177 11.5606 7.00126 11.4987 7.06665C11.3885 7.18367 11.3025 7.32479 11.2509 7.47278C11.1855 7.63455 11.1545 7.8032 11.151 7.97184C11.151 8.0338 11.1579 8.09575 11.1717 8.15426Z" fill="white"/>
<path d="M6.14047 8.76037L8.72388 6.38725L8.19591 4.8054L6.14047 8.76037Z" fill="white"/>
<path d="M3.02153 11.0633C3.95058 11.6247 4.73015 11.8083 5.36023 11.6139C5.99053 11.4198 7.46614 10.9649 9.78706 10.2493C10.1897 10.1254 10.8234 9.87343 11.2016 9.68757L12.4882 9.05566C12.6771 8.96273 12.7105 8.76552 12.5622 8.6158L11.8669 7.91264C10.3491 8.38038 7.78944 9.67622 6.15425 10.8041C5.33648 11.3682 3.93292 11.4842 3.02153 11.0633Z" fill="white"/>
<path fill-rule="evenodd" clip-rule="evenodd" d="M5.96082 10.5188C6.4117 10.209 6.87634 9.91646 7.35131 9.64456C7.85725 9.34856 8.37352 9.06978 8.90011 8.80476C9.39917 8.55007 9.90856 8.30914 10.4283 8.08887C10.8619 7.89613 11.3094 7.72748 11.7637 7.58292C11.8841 7.54506 12.0218 7.57948 12.1113 7.66897L12.8031 8.37109C12.927 8.48812 12.9958 8.64988 12.9993 8.82197C12.9924 9.05945 12.8478 9.27284 12.6345 9.36921L11.3541 9.99562C10.8826 10.2297 10.3904 10.4224 9.88791 10.5773L6.40826 11.6511L5.46176 11.9437C5.26902 12.0022 5.0694 12.0332 4.86633 12.0332C4.63229 12.0297 4.40169 12.0022 4.17453 11.9437C3.96803 11.892 3.7684 11.8232 3.57222 11.7372C3.32097 11.627 3.0766 11.4997 2.84256 11.3586C2.76684 11.3138 2.71177 11.2415 2.69112 11.1555C2.66703 11.0695 2.67735 10.98 2.71866 10.9043C2.75652 10.8251 2.82535 10.7666 2.9114 10.739C2.994 10.7081 3.08349 10.715 3.16265 10.7494C3.3313 10.8251 3.51027 10.8802 3.69268 10.9146C3.89231 10.9524 4.09537 10.9731 4.30188 10.9731C4.6082 10.9731 4.91452 10.9318 5.21051 10.8526C5.47897 10.7838 5.73366 10.6737 5.96082 10.5188ZM6.73523 10.8285C7.04843 10.6255 7.36851 10.4293 7.69548 10.24C8.1911 9.95088 8.69705 9.67553 9.20987 9.4174C9.69861 9.16959 10.1977 8.93555 10.7002 8.71872C11.0512 8.56383 11.4092 8.42616 11.7706 8.3057L12.249 8.78755L11.0512 9.37954C10.6107 9.59637 10.1529 9.77534 9.68484 9.9199L6.73523 10.8285Z" fill="white"/>
<path d="M5.52026 8.87015C5.44455 8.81852 5.39292 8.73936 5.37227 8.64987C5.35506 8.56039 5.37227 8.46746 5.42389 8.39174C5.47552 8.31602 5.55468 8.26439 5.64417 8.24374C5.73366 8.22653 5.82658 8.24374 5.9023 8.29537L6.33253 8.58104C6.40825 8.63266 6.45987 8.70838 6.47708 8.79787C6.49429 8.88736 6.47708 8.98029 6.42546 9.05945C6.37727 9.13517 6.29811 9.18679 6.20862 9.204C6.11914 9.22121 6.02621 9.204 5.95049 9.15582L5.52026 8.87015Z" fill="white"/>
<path d="M5.56846 9.20057C5.64418 9.24875 5.69581 9.32791 5.71301 9.4174C5.73367 9.50689 5.71301 9.59982 5.66483 9.67553C5.6132 9.75125 5.53404 9.80632 5.44456 9.82353C5.35507 9.84074 5.26214 9.82353 5.18642 9.7719L4.7562 9.48624C4.68048 9.43805 4.62885 9.35889 4.61164 9.2694C4.59099 9.17992 4.61164 9.08699 4.65983 9.01127C4.71145 8.93555 4.79062 8.88048 4.8801 8.86327C4.96959 8.84606 5.06252 8.86327 5.13824 8.9149L5.56846 9.20057Z" fill="white"/>
<path d="M8.29779 6.16834C8.3563 6.09607 8.44235 6.05477 8.53183 6.04444C8.62132 6.03756 8.71425 6.06509 8.78309 6.1236C8.85536 6.18211 8.89666 6.26471 8.90699 6.3542C8.91387 6.44713 8.88634 6.53662 8.82783 6.60545C8.75211 6.70182 8.66951 6.79475 8.5869 6.88424C8.46988 7.00814 8.35286 7.1286 8.2324 7.24907C7.88822 7.58292 7.53716 7.90645 7.17233 8.21965C6.49774 8.79443 5.80938 9.35544 5.11414 9.90613C5.04186 9.96464 4.94893 9.98873 4.85944 9.97841C4.76996 9.96808 4.68736 9.9199 4.62884 9.85106C4.57378 9.77878 4.54624 9.68585 4.55657 9.59637C4.57033 9.50688 4.61508 9.42428 4.68736 9.36577C5.37571 8.82196 6.05719 8.26439 6.72489 7.69306C7.07596 7.39362 7.42014 7.08042 7.74711 6.75689C7.86413 6.64331 7.97426 6.52973 8.0844 6.41271C8.15668 6.33355 8.22896 6.25095 8.29779 6.16834Z" fill="white"/>
<path d="M8.21175 5.5385C7.90887 6.11328 7.58534 6.67773 7.23772 7.22842C6.86601 7.8204 6.45299 8.38486 6.009 8.92178C5.57534 9.43804 5.10037 9.91989 4.59099 10.3639C4.15732 10.739 3.68924 11.0729 3.19362 11.362C3.11446 11.4067 3.02153 11.4205 2.93204 11.3964C2.846 11.3723 2.77028 11.3138 2.72209 11.2347C2.67735 11.1555 2.66703 11.0626 2.68768 10.9731C2.71177 10.887 2.77028 10.8113 2.84944 10.7666C3.3072 10.5016 3.74086 10.1918 4.14011 9.84418C4.62196 9.42428 5.0694 8.96996 5.47897 8.47779C5.90575 7.9684 6.29811 7.42804 6.65606 6.86359C7.10349 6.14769 7.51651 5.41115 7.88822 4.65396C7.93985 4.54726 8.0431 4.47498 8.16012 4.46466C8.28059 4.45089 8.39416 4.50252 8.46988 4.59545L8.53184 4.67461V4.67805C8.66951 4.86391 8.7762 5.06697 8.85192 5.2838C8.92764 5.49375 8.96894 5.71403 8.97239 5.9343C8.97239 5.97905 8.97239 6.02379 8.9655 6.06853L9.0068 6.07197C9.17545 6.06509 9.34066 6.02379 9.48865 5.94463C9.64009 5.87923 9.77432 5.77598 9.88102 5.64519L10.4558 4.89144L11.2508 5.41803L12.187 7.78599C12.2214 7.87203 12.218 7.96496 12.1836 8.051C12.1457 8.13361 12.0769 8.199 11.9943 8.23342C11.9082 8.26784 11.8153 8.26439 11.7293 8.22998C11.6467 8.19212 11.5813 8.12328 11.5468 8.04068L10.6898 5.87235L10.6141 5.82072L10.4248 6.06853C10.4214 6.06853 10.4214 6.07197 10.4179 6.07542C10.2493 6.28537 10.0325 6.45401 9.78809 6.56759C9.54716 6.68805 9.28215 6.75345 9.01369 6.76033C9.0068 6.76033 8.99992 6.76033 8.99304 6.76033L8.92764 6.75689C8.9242 6.75689 8.9242 6.75689 8.9242 6.75689C8.76244 6.75001 8.60756 6.68805 8.48365 6.5848C8.35286 6.47466 8.2737 6.3129 8.27026 6.13737C8.27026 6.12704 8.27026 6.11328 8.27026 6.09951L8.2737 6.05821C8.2737 6.04788 8.27714 6.041 8.27714 6.03067C8.28403 6.00314 8.28403 5.97216 8.28403 5.94463C8.28403 5.80696 8.25649 5.66928 8.21175 5.5385Z" fill="white"/>
<path d="M19.2844 8.23017L21.2524 3.43017H22.6032L24.5438 8.23017H23.2684L22.8295 7.07131H20.9575L20.5118 8.23017H19.2844ZM21.3141 6.13189H22.4798L21.9038 4.59589L21.3141 6.13189ZM24.8382 8.23017V4.60274H25.949V8.23017H24.8382ZM25.3936 4.26674C25.2245 4.26674 25.0805 4.20731 24.9616 4.08846C24.8427 3.9696 24.7833 3.8256 24.7833 3.65646C24.7833 3.48731 24.8427 3.34331 24.9616 3.22446C25.0805 3.1056 25.2245 3.04617 25.3936 3.04617C25.5627 3.04617 25.7067 3.1056 25.8256 3.22446C25.9445 3.34331 26.0039 3.48731 26.0039 3.65646C26.0039 3.8256 25.9445 3.9696 25.8256 4.08846C25.7067 4.20731 25.5627 4.26674 25.3936 4.26674ZM26.6328 8.23017V4.60274H27.7437V4.96617C27.8625 4.81989 28.002 4.71017 28.162 4.63703C28.322 4.55931 28.5002 4.52046 28.6968 4.52046C28.8934 4.52503 29.0328 4.55474 29.1151 4.6096V5.57646C29.042 5.53989 28.9597 5.51246 28.8682 5.49417C28.7768 5.47589 28.6831 5.46674 28.5871 5.46674C28.4134 5.46674 28.2511 5.50789 28.1002 5.59017C27.954 5.66789 27.8351 5.77989 27.7437 5.92617V8.23017H26.6328Z" fill="#050919"/>
<path d="M21.5587 13.4485C21.1975 13.4485 20.8615 13.3867 20.5507 13.2633C20.2398 13.1353 19.9655 12.9593 19.7278 12.7353C19.4947 12.5067 19.3118 12.2439 19.1792 11.9467C19.0512 11.645 18.9872 11.3205 18.9872 10.973C18.9872 10.6256 19.0512 10.3033 19.1792 10.0062C19.3118 9.70446 19.4924 9.4416 19.7209 9.2176C19.9541 8.98903 20.2261 8.81303 20.5369 8.6896C20.8478 8.5616 21.1815 8.4976 21.5381 8.4976C21.9449 8.4976 22.3289 8.58217 22.6901 8.75132C23.0512 8.91589 23.3461 9.14446 23.5747 9.43703L22.7449 10.1845C22.5895 9.98332 22.4089 9.83246 22.2032 9.73189C22.0021 9.63132 21.7804 9.58103 21.5381 9.58103C21.3461 9.58103 21.1678 9.6176 21.0032 9.69075C20.8432 9.75932 20.7015 9.85532 20.5781 9.97875C20.4592 10.1022 20.3655 10.2485 20.2969 10.4176C20.2329 10.5867 20.2009 10.7719 20.2009 10.973C20.2009 11.1742 20.2352 11.3616 20.3038 11.5353C20.3724 11.7045 20.4684 11.853 20.5918 11.981C20.7198 12.1045 20.8661 12.2027 21.0307 12.2759C21.1998 12.3445 21.3827 12.3787 21.5792 12.3787C21.7667 12.3787 21.9358 12.3467 22.0867 12.2827C22.2421 12.2187 22.3747 12.1296 22.4844 12.0153C22.5941 11.901 22.6718 11.7707 22.7175 11.6245H21.4215V10.6027H23.9929V10.9456C23.9929 11.3067 23.9312 11.6405 23.8078 11.9467C23.6889 12.2485 23.5198 12.5136 23.3004 12.7422C23.0855 12.9662 22.8295 13.1399 22.5324 13.2633C22.2352 13.3867 21.9107 13.4485 21.5587 13.4485ZM25.7202 13.4347C25.4642 13.4347 25.2357 13.3867 25.0345 13.2907C24.838 13.1947 24.6825 13.0622 24.5682 12.893C24.4585 12.7239 24.4037 12.5296 24.4037 12.3102C24.4037 11.9627 24.534 11.6953 24.7945 11.5079C25.0597 11.3159 25.4277 11.2199 25.8985 11.2199C26.182 11.2199 26.4562 11.2542 26.7214 11.3227V11.1445C26.7214 10.9616 26.662 10.8267 26.5431 10.7399C26.4288 10.6485 26.2574 10.6027 26.0288 10.6027C25.8871 10.6027 25.7271 10.6256 25.5488 10.6713C25.3751 10.717 25.1694 10.7902 24.9317 10.8907L24.534 10.0747C24.8311 9.94217 25.1168 9.84389 25.3911 9.77989C25.67 9.71132 25.9488 9.67703 26.2277 9.67703C26.7305 9.67703 27.1214 9.79817 27.4002 10.0405C27.6791 10.2782 27.8185 10.6142 27.8185 11.0485V13.373H26.7214V13.1536C26.5751 13.2542 26.4197 13.3273 26.2551 13.373C26.0951 13.4142 25.9168 13.4347 25.7202 13.4347ZM25.4597 12.2896C25.4597 12.4039 25.51 12.493 25.6105 12.557C25.7111 12.621 25.8505 12.653 26.0288 12.653C26.1614 12.653 26.2848 12.6393 26.3991 12.6119C26.518 12.5845 26.6254 12.541 26.7214 12.4816V12.0153C26.6162 11.9879 26.5088 11.9673 26.3991 11.9536C26.2894 11.9399 26.1774 11.933 26.0631 11.933C25.8711 11.933 25.7225 11.965 25.6174 12.029C25.5122 12.0885 25.4597 12.1753 25.4597 12.2896ZM28.4788 13.373V9.7456H29.5897V9.97875C29.8457 9.7776 30.1474 9.67703 30.4948 9.67703C30.7234 9.67703 30.9291 9.72046 31.1119 9.80732C31.2948 9.89417 31.4479 10.0176 31.5714 10.1776C31.7177 10.0176 31.8914 9.89417 32.0925 9.80732C32.2937 9.72046 32.5131 9.67703 32.7508 9.67703C33.0251 9.67703 33.2674 9.73875 33.4777 9.86217C33.6879 9.9856 33.8525 10.157 33.9714 10.3765C34.0948 10.5959 34.1565 10.8496 34.1565 11.1376V13.373H33.0457V11.2885C33.0457 11.0873 32.9908 10.9273 32.8811 10.8085C32.7759 10.6896 32.6342 10.6302 32.4559 10.6302C32.3325 10.6302 32.2205 10.653 32.1199 10.6987C32.0194 10.7445 31.9325 10.813 31.8594 10.9045C31.8639 10.941 31.8662 10.9799 31.8662 11.021C31.8708 11.0576 31.8731 11.0965 31.8731 11.1376V13.373H30.7622V11.2885C30.7622 11.0873 30.7074 10.9273 30.5977 10.8085C30.4925 10.6896 30.3508 10.6302 30.1725 10.6302C30.0491 10.6302 29.9371 10.653 29.8365 10.6987C29.7405 10.7399 29.6582 10.8039 29.5897 10.8907V13.373H28.4788ZM36.6239 13.4416C36.2536 13.4416 35.9176 13.3593 35.6159 13.1947C35.3188 13.0256 35.0833 12.7993 34.9096 12.5159C34.7359 12.2325 34.649 11.9147 34.649 11.5627C34.649 11.2107 34.7313 10.893 34.8959 10.6096C35.065 10.3262 35.2936 10.1022 35.5816 9.9376C35.8696 9.76846 36.1896 9.68389 36.5416 9.68389C36.8982 9.68389 37.2136 9.77075 37.4879 9.94446C37.7622 10.1136 37.977 10.3467 38.1325 10.6439C38.2925 10.941 38.3725 11.2816 38.3725 11.6656V11.9399H35.7873C35.8376 12.0542 35.9039 12.1547 35.9862 12.2416C36.073 12.3285 36.1759 12.397 36.2948 12.4473C36.4136 12.493 36.5416 12.5159 36.6788 12.5159C36.8296 12.5159 36.9668 12.493 37.0902 12.4473C37.2136 12.397 37.3188 12.3285 37.4056 12.2416L38.1393 12.893C37.9108 13.085 37.6753 13.2245 37.433 13.3113C37.1953 13.3982 36.9256 13.4416 36.6239 13.4416ZM35.7668 11.165H37.2822C37.2456 11.0462 37.1885 10.9456 37.1108 10.8633C37.0376 10.7765 36.9508 10.7102 36.8502 10.6645C36.7496 10.6142 36.6399 10.589 36.521 10.589C36.3976 10.589 36.2856 10.6119 36.185 10.6576C36.0845 10.7033 35.9976 10.7696 35.9245 10.8565C35.8559 10.9387 35.8033 11.0416 35.7668 11.165Z" fill="#050919"/>
<path d="M31.0867 8.43589C30.8238 8.43589 30.5933 8.38827 30.3952 8.29303C30.1971 8.19779 30.0428 8.06446 29.9324 7.89303C29.8219 7.7216 29.7667 7.52351 29.7667 7.29875C29.7667 7.13875 29.7933 6.99589 29.8467 6.87017C29.9038 6.74065 29.9971 6.61875 30.1267 6.50446C30.2562 6.39017 30.4314 6.27208 30.6524 6.15017C30.519 5.98256 30.4238 5.83017 30.3667 5.69303C30.3133 5.55208 30.2867 5.40541 30.2867 5.25303C30.2867 5.07398 30.3286 4.91398 30.4124 4.77303C30.4962 4.62827 30.6105 4.51589 30.7552 4.43589C30.9038 4.35208 31.0695 4.31017 31.2524 4.31017C31.4276 4.31017 31.5819 4.34637 31.7152 4.41875C31.8524 4.48732 31.959 4.58446 32.0352 4.71017C32.1152 4.83208 32.1552 4.97494 32.1552 5.13875C32.1552 5.32541 32.1038 5.49303 32.0009 5.6416C31.8981 5.79017 31.7362 5.92922 31.5152 6.05875L31.2295 6.23017C31.3857 6.40541 31.5571 6.58446 31.7438 6.76732C31.9305 6.95017 32.1209 7.13113 32.3152 7.31017C32.4105 7.15779 32.4886 6.99017 32.5495 6.80732C32.6143 6.62446 32.6657 6.43398 32.7038 6.23589L33.0924 6.29875C33.0428 6.54256 32.9781 6.77113 32.8981 6.98446C32.8181 7.19398 32.719 7.38827 32.6009 7.56732C32.7228 7.67398 32.8448 7.77684 32.9667 7.87589C33.0886 7.97113 33.2028 8.06065 33.3095 8.14446L33.0524 8.44732C32.9457 8.36351 32.8333 8.27589 32.7152 8.18446C32.6009 8.08922 32.4848 7.99208 32.3667 7.89303C32.2028 8.06827 32.0105 8.20351 31.7895 8.29875C31.5724 8.39017 31.3381 8.43589 31.0867 8.43589ZM31.0067 5.96732L31.3324 5.77875C31.4733 5.69494 31.5781 5.6016 31.6467 5.49875C31.719 5.39589 31.7552 5.2797 31.7552 5.15017C31.7552 5.00922 31.7057 4.89113 31.6067 4.79589C31.5076 4.70065 31.3857 4.65303 31.2409 4.65303C31.0809 4.65303 30.9476 4.70827 30.8409 4.81875C30.7381 4.92922 30.6867 5.07208 30.6867 5.24732C30.6867 5.36541 30.7095 5.4797 30.7552 5.59017C30.8048 5.69684 30.8886 5.82256 31.0067 5.96732ZM31.1095 8.07589C31.3 8.07589 31.4771 8.0397 31.6409 7.96732C31.8086 7.89113 31.9571 7.78256 32.0867 7.6416C31.8657 7.4397 31.6505 7.23589 31.4409 7.03017C31.2314 6.82065 31.0428 6.61875 30.8752 6.42446C30.6962 6.5197 30.5533 6.61113 30.4467 6.69875C30.3438 6.78636 30.2714 6.87779 30.2295 6.97303C30.1876 7.06446 30.1667 7.16922 30.1667 7.28732C30.1667 7.52351 30.2524 7.71398 30.4238 7.85875C30.599 8.00351 30.8276 8.07589 31.1095 8.07589Z" fill="#050919"/>
</svg>
